HIERARCHY
ROOT pelvis
{
	OFFSET 0.000000 0.000000 0.000000
	CHANNELS 6 Xposition Yposition Zposition Xrotation Yrotation Zrotation
	JOINT l_hip
	{
		OFFSET 0.195211 -0.245059 -0.022011
		CHANNELS 3 Xrotation Yrotation Zrotation
		JOINT l_knee
		{
			OFFSET 0.083896 -0.996307 -0.018298
			CHANNELS 3 Xrotation Yrotation Zrotation
			JOINT l_ankle
			{
				OFFSET -0.031606 -1.048662 -0.119000
				CHANNELS 3 Xrotation Yrotation Zrotation
				JOINT l_foot
				{
					OFFSET 0.063841 -0.149483 0.312863
					CHANNELS 3 Xrotation Yrotation Zrotation
					End Site
					{
						OFFSET 0.000000 0.000000 0.000000
					}
				}
			}
		}
	}
	JOINT r_hip
	{
		OFFSET -0.188785 -0.243354 -0.013119
		CHANNELS 3 Xrotation Yrotation Zrotation
		JOINT r_knee
		{
			OFFSET -0.098896 -1.013926 -0.025127
			CHANNELS 3 Xrotation Yrotation Zrotation
			JOINT r_ankle
			{
				OFFSET 0.038376 -1.049454 -0.114596
				CHANNELS 3 Xrotation Yrotation Zrotation
				JOINT r_foot
				{
					OFFSET -0.060300 -0.126955 0.322518
					CHANNELS 3 Xrotation Yrotation Zrotation
					End Site
					{
						OFFSET 0.000000 0.000000 0.000000
					}
				}
			}
		}
	}
	JOINT spine1
	{
		OFFSET -0.006861 0.282462 -0.060688
		CHANNELS 3 Xrotation Yrotation Zrotation
		JOINT spine2
		{
			OFFSET 0.009796 0.349212 -0.004686
			CHANNELS 3 Xrotation Yrotation Zrotation
			JOINT spine3
			{
				OFFSET 0.005545 0.134239 0.076232
				CHANNELS 3 Xrotation Yrotation Zrotation
				JOINT neck
				{
					OFFSET -0.005369 0.569656 -0.136135
					CHANNELS 3 Xrotation Yrotation Zrotation
					JOINT head
					{
						OFFSET 0.009621 0.170484 0.137338
						CHANNELS 3 Xrotation Yrotation Zrotation
						End Site
						{
							OFFSET 0.000000 0.000000 0.000000
						}
					}
				}
				JOINT l_collar
				{
					OFFSET 0.205981 0.322192 -0.100872
					CHANNELS 3 Xrotation Yrotation Zrotation
					JOINT l_shoulder
					{
						OFFSET 0.233388 0.086823 -0.019950
						CHANNELS 3 Xrotation Yrotation Zrotation
						JOINT l_elbow
						{
							OFFSET 0.687295 -0.032736 -0.075278
							CHANNELS 3 Xrotation Yrotation Zrotation
							JOINT l_wrist
							{
								OFFSET 0.651109 0.024639 0.000120
								CHANNELS 3 Xrotation Yrotation Zrotation
								JOINT l_hand
								{
									OFFSET 0.217934 -0.026487 -0.036124
									CHANNELS 3 Xrotation Yrotation Zrotation
									End Site
									{
										OFFSET 0.000000 0.000000 0.000000
									}
								}
							}
						}
					}
				}
				JOINT r_collar
				{
					OFFSET -0.210726 0.316244 -0.114374
					CHANNELS 3 Xrotation Yrotation Zrotation
					JOINT r_shoulder
					{
						OFFSET -0.244017 0.089684 -0.026814
						CHANNELS 3 Xrotation Yrotation Zrotation
						JOINT r_elbow
						{
							OFFSET -0.672913 -0.035979 -0.055153
							CHANNELS 3 Xrotation Yrotation Zrotation
							JOINT r_wrist
							{
								OFFSET -0.670689 0.023586 -0.009661
								CHANNELS 3 Xrotation Yrotation Zrotation
								JOINT r_hand
								{
									OFFSET -0.219937 -0.019827 -0.028502
									CHANNELS 3 Xrotation Yrotation Zrotation
									End Site
									{
										OFFSET 0.000000 0.000000 0.000000
									}
								}
							}
						}
					}
				}
			}
		}
	}
}
MOTION
Frames: 14
Frame Time: 0.016667
0.000000 0.000000 0.000000 0.000000 0.000000 0.000000 -1.525496 3.790893 4.358179 5.993922 -4.636403 -4.105187 0.000000 0.000000 0.000000 0.000000 0.000000 0.000000 -3.546348 -5.167101 -6.580188 5.914491 -1.370845 2.285486 0.000000 0.000000 0.000000 0.000000 0.000000 0.000000 14.856121 0.249989 3.283847 -0.052885 -1.172391 -1.126708 2.143157 -1.158612 1.513605 -1.631003 -8.585551 1.095088 -14.564823 -3.169859 7.320779 3.195449 4.104445 -21.281712 -2.797819 -13.613969 -54.227102 -3.636548 -13.903908 -4.825394 0.000000 0.000000 0.000000 0.000000 0.000000 0.000000 0.799011 0.533415 16.301795 3.704681 14.181963 53.836668 -13.692263 12.710271 8.202474 0.000000 0.000000 0.000000 0.000000 0.000000 0.000000 
0.000000 0.000000 0.000000 0.000000 0.000000 0.000000 -2.003506 3.705242 4.338728 5.712781 -4.626451 -4.037629 0.000000 0.000000 0.000000 0.000000 0.000000 0.000000 -3.873944 -5.203567 -6.535248 5.570338 -1.560599 2.203399 0.000000 0.000000 0.000000 0.000000 0.000000 0.000000 15.082048 0.426255 3.304747 0.171541 -1.320862 -1.133036 1.859827 -1.048189 1.812094 -5.391945 -7.362638 1.272966 -18.926079 -2.761125 8.297424 2.760078 3.135579 -21.495476 -2.215689 -13.136385 -53.761502 -3.958074 -13.903379 -4.916856 0.000000 0.000000 0.000000 0.000000 0.000000 0.000000 0.642195 1.140079 16.236307 3.916951 13.683929 53.684763 -13.445405 12.906530 8.150419 0.000000 0.000000 0.000000 0.000000 0.000000 0.000000 
0.000000 0.000000 0.000000 0.000000 0.000000 0.000000 -2.211919 3.620279 4.269538 5.400098 -4.665269 -4.049223 0.000000 0.000000 0.000000 0.000000 0.000000 0.000000 -4.062447 -5.270842 -6.573981 5.328150 -1.764234 2.134456 0.000000 0.000000 0.000000 0.000000 0.000000 0.000000 15.143020 0.558158 3.324540 0.717730 -1.536939 -1.133323 1.619735 -0.936519 2.065872 -8.213353 -6.244319 1.045320 -23.441505 -2.312705 8.961882 2.392300 2.052706 -21.669547 -1.798033 -12.806526 -53.321348 -4.683210 -13.989448 -5.166944 0.000000 0.000000 0.000000 0.000000 0.000000 0.000000 0.603773 1.919534 16.203178 3.938489 13.334265 53.506400 -13.550279 13.105265 8.133493 0.000000 0.000000 0.000000 0.000000 0.000000 0.000000 
0.000000 0.000000 0.000000 0.000000 0.000000 0.000000 -2.342677 3.513709 4.132774 5.005317 -4.768867 -4.099678 0.000000 0.000000 0.000000 0.000000 0.000000 0.000000 -4.114805 -5.369436 -6.838026 5.017286 -2.136288 2.183081 0.000000 0.000000 0.000000 0.000000 0.000000 0.000000 15.131811 0.577864 3.492108 1.273533 -1.839018 -1.176264 1.359742 -0.948162 2.238431 -10.048978 -5.354461 0.578849 -27.829007 -1.689870 9.292260 2.270025 1.229403 -21.860754 -1.350234 -12.560134 -52.979282 -5.232971 -14.495554 -5.186758 0.000000 0.000000 0.000000 0.000000 0.000000 0.000000 0.593255 2.432058 16.073517 3.927362 13.171242 53.369580 -13.617279 13.438815 8.149943 0.000000 0.000000 0.000000 0.000000 0.000000 0.000000 
0.000000 0.000000 0.000000 0.000000 0.000000 0.000000 -2.295502 3.575497 3.979133 4.654943 -4.859311 -4.110727 0.000000 0.000000 0.000000 0.000000 0.000000 0.000000 -4.099428 -5.407802 -6.956556 4.807328 -2.273124 2.169112 0.000000 0.000000 0.000000 0.000000 0.000000 0.000000 15.247502 0.519526 3.680913 1.485648 -1.926217 -1.226224 1.309016 -1.022243 2.285694 -10.333862 -5.815391 -0.206443 -29.805898 -1.688279 8.768343 2.237588 1.237754 -21.844863 -1.156892 -12.600540 -52.814869 -5.035667 -15.128811 -5.082891 0.000000 0.000000 0.000000 0.000000 0.000000 0.000000 0.455823 2.575618 15.912925 3.969420 13.269481 53.227892 -13.656241 13.800150 8.433645 0.000000 0.000000 0.000000 0.000000 0.000000 0.000000 
0.000000 0.000000 0.000000 0.000000 0.000000 0.000000 -2.013044 3.644872 3.854904 4.432084 -4.980020 -4.140178 0.000000 0.000000 0.000000 0.000000 0.000000 0.000000 -3.901402 -5.445862 -7.118165 4.801987 -2.412464 2.249031 0.000000 0.000000 0.000000 0.000000 0.000000 0.000000 15.320203 0.438868 3.886934 1.631283 -1.910255 -1.265142 1.410775 -1.041924 2.155154 -8.781535 -7.572003 -1.300277 -29.494146 -2.762454 7.665028 2.326646 1.539983 -21.613023 -1.193199 -12.975764 -52.781036 -4.562685 -15.689177 -4.921362 0.000000 0.000000 0.000000 0.000000 0.000000 0.000000 0.366780 2.757206 15.756708 3.955808 13.522245 53.209258 -13.667640 14.010580 8.667046 0.000000 0.000000 0.000000 0.000000 0.000000 0.000000 
0.000000 0.000000 0.000000 0.000000 0.000000 0.000000 -1.732964 3.669641 3.751041 4.463874 -5.056509 -4.152064 0.000000 0.000000 0.000000 0.000000 0.000000 0.000000 -3.672217 -5.494511 -7.238298 4.914615 -2.412698 2.299720 0.000000 0.000000 0.000000 0.000000 0.000000 0.000000 15.183060 0.397980 3.917441 1.588033 -1.834133 -1.279372 1.730143 -0.998272 1.865235 -6.635181 -8.890097 -1.900366 -26.903282 -4.035160 6.698312 2.424108 2.028406 -21.170354 -1.476537 -13.495719 -52.811049 -3.963188 -16.011074 -4.769072 0.000000 0.000000 0.000000 0.000000 0.000000 0.000000 0.266142 2.644112 15.883131 3.754318 13.929885 53.293867 -13.460548 13.821471 8.663563 0.000000 0.000000 0.000000 0.000000 0.000000 0.000000 
0.000000 0.000000 0.000000 0.000000 0.000000 0.000000 -1.393241 3.648191 3.651067 4.637515 -5.147444 -4.187619 0.000000 0.000000 0.000000 0.000000 0.000000 0.000000 -3.295599 -5.622213 -7.377151 5.057972 -2.411667 2.316662 0.000000 0.000000 0.000000 0.000000 0.000000 0.000000 14.883544 0.268069 3.906426 1.225571 -1.781397 -1.323024 2.216088 -1.019210 1.437540 -3.338906 -9.945181 -2.247417 -22.680894 -5.057638 5.725340 2.644346 3.071029 -20.503783 -2.030565 -14.141561 -53.092413 -3.210094 -16.036039 -4.742169 0.000000 0.000000 0.000000 0.000000 0.000000 0.000000 0.124650 1.936478 16.048015 3.328318 14.785938 53.642697 -12.763415 13.020978 8.491886 0.000000 0.000000 0.000000 0.000000 0.000000 0.000000 
0.000000 0.000000 0.000000 0.000000 0.000000 0.000000 -0.840608 3.693661 3.566510 4.800515 -5.328372 -4.234259 0.000000 0.000000 0.000000 0.000000 0.000000 0.000000 -2.781184 -5.722975 -7.512635 5.259103 -2.480274 2.361365 0.000000 0.000000 0.000000 0.000000 0.000000 0.000000 14.424005 0.202513 3.905781 1.000610 -1.651187 -1.353460 2.663149 -1.003649 1.044743 0.705236 -11.309208 -2.545600 -18.365557 -6.125551 4.908990 2.824703 4.046212 -19.790072 -2.654576 -14.939757 -53.628128 -2.622681 -15.909109 -4.571452 0.000000 0.000000 0.000000 0.000000 0.000000 0.000000 0.130237 1.297403 15.921297 3.120805 15.446492 54.158931 -12.401127 12.786748 8.488039 0.000000 0.000000 0.000000 0.000000 0.000000 0.000000 
0.000000 0.000000 0.000000 0.000000 0.000000 0.000000 0.031539 3.821138 3.520874 4.908354 -5.509454 -4.245456 0.000000 0.000000 0.000000 0.000000 0.000000 0.000000 -2.081880 -5.786072 -7.434503 5.504588 -2.450779 2.334254 0.000000 0.000000 0.000000 0.000000 0.000000 0.000000 14.035574 0.189039 3.826407 0.852718 -1.445975 -1.330117 3.065194 -0.971984 0.653814 5.395411 -12.760778 -2.984556 -13.693006 -7.236379 3.904894 2.949808 4.950762 -19.162045 -3.342491 -15.726120 -54.150532 -2.193961 -15.573639 -4.384228 0.000000 0.000000 0.000000 0.000000 0.000000 0.000000 0.173470 0.794531 15.985513 2.944212 16.092025 54.603198 -12.183855 12.583616 8.247579 0.000000 0.000000 0.000000 0.000000 0.000000 0.000000 
0.000000 0.000000 0.000000 0.000000 0.000000 0.000000 0.874574 3.913386 3.496733 5.039734 -5.649054 -4.267162 0.000000 0.000000 0.000000 0.000000 0.000000 0.000000 -1.357705 -5.869423 -7.474489 5.801658 -2.448957 2.411322 0.000000 0.000000 0.000000 0.000000 0.000000 0.000000 13.503902 0.067190 3.825636 0.634352 -1.272578 -1.309765 3.566629 -1.097088 0.201325 10.305302 -14.469263 -3.345000 -8.220292 -8.536053 2.682608 3.277773 6.079903 -18.654844 -4.084078 -16.477339 -54.843390 -1.873629 -15.523453 -4.069943 0.000000 0.000000 0.000000 0.000000 0.000000 0.000000 0.171188 0.063123 16.078047 2.828940 16.803468 54.946529 -12.050147 12.656667 8.144531 0.000000 0.000000 0.000000 0.000000 0.000000 0.000000 
0.000000 0.000000 0.000000 0.000000 0.000000 0.000000 1.614964 3.874677 3.465996 5.204940 -5.775992 -4.341088 0.000000 0.000000 0.000000 0.000000 0.000000 0.000000 -0.722567 -6.014037 -7.645761 6.172661 -2.402660 2.544539 0.000000 0.000000 0.000000 0.000000 0.000000 0.000000 12.802993 0.023498 3.722344 0.491487 -1.121509 -1.233825 4.070145 -1.214987 -0.302988 14.844373 -16.035983 -3.907755 -1.954975 -10.157194 1.365936 3.573637 6.961366 -18.248490 -4.763202 -17.131562 -55.311791 -1.698887 -15.500281 -3.894933 0.000000 0.000000 0.000000 0.000000 0.000000 0.000000 0.323526 -0.510554 16.544865 2.978643 17.123866 54.921884 -11.957413 13.009186 7.732064 0.000000 0.000000 0.000000 0.000000 0.000000 0.000000 
0.000000 0.000000 0.000000 0.000000 0.000000 0.000000 2.284876 3.829591 3.487144 5.493257 -5.942374 -4.355536 0.000000 0.000000 0.000000 0.000000 0.000000 0.000000 -0.062735 -6.089894 -7.761643 6.604533 -2.264656 2.683898 0.000000 0.000000 0.000000 0.000000 0.000000 0.000000 12.214721 -0.041098 3.590949 0.317968 -0.925204 -1.139587 4.499219 -1.359981 -0.816209 18.751613 -17.281971 -4.491019 5.356256 -12.135609 0.012117 4.001620 7.709725 -18.024534 -5.344833 -17.689985 -55.599209 -1.746089 -15.656510 -3.744763 0.000000 0.000000 0.000000 0.000000 0.000000 0.000000 0.571245 -0.958099 17.332218 3.219114 17.178021 54.705759 -13.083943 13.375623 7.751496 0.000000 0.000000 0.000000 0.000000 0.000000 0.000000 
0.000000 0.000000 0.000000 0.000000 0.000000 0.000000 2.952639 3.786301 3.332202 5.702307 -6.147894 -4.296990 0.000000 0.000000 0.000000 0.000000 0.000000 0.000000 0.620338 -6.227577 -7.862377 6.958104 -2.023552 2.726962 0.000000 0.000000 0.000000 0.000000 0.000000 0.000000 11.786734 -0.108975 3.486638 0.330806 -0.816436 -1.082401 4.955598 -1.577292 -1.300555 21.430090 -18.303157 -4.989155 11.735927 -14.046637 -1.107822 4.330487 8.335978 -18.039681 -5.831783 -17.972108 -55.640983 -1.872257 -16.040512 -3.653512 0.000000 0.000000 0.000000 0.000000 0.000000 0.000000 0.623057 -1.374572 18.202375 3.606967 17.104342 54.112756 -13.804675 14.169398 7.646096 0.000000 0.000000 0.000000 0.000000 0.000000 0.000000 
